<svg width="438" height="362" viewBox="0 0 438 362" fill="none" xmlns="http://www.w3.org/2000/svg">
<rect x="97" y="144" width="340.066" height="217.384" rx="10.7616" fill="white"/>
<path d="M199.644 181.295V169.242H201.796L205.877 177.266L209.94 169.242H212.093V181.295H210.268V172.393L206.583 179.573H205.171L201.469 172.41V181.295H199.644ZM217.021 181.502C216.298 181.502 215.701 181.381 215.231 181.14C214.76 180.899 214.41 180.583 214.18 180.193C213.951 179.791 213.836 179.355 213.836 178.884C213.836 178.058 214.157 177.404 214.8 176.921C215.443 176.439 216.361 176.198 217.555 176.198H219.793V176.043C219.793 175.377 219.61 174.878 219.242 174.545C218.887 174.212 218.422 174.046 217.848 174.046C217.343 174.046 216.901 174.172 216.522 174.425C216.155 174.666 215.931 175.027 215.85 175.509H214.025C214.083 174.89 214.289 174.362 214.645 173.925C215.012 173.478 215.472 173.139 216.023 172.909C216.585 172.668 217.199 172.548 217.865 172.548C219.059 172.548 219.983 172.864 220.637 173.495C221.291 174.115 221.619 174.964 221.619 176.043V181.295H220.035L219.88 179.831C219.639 180.302 219.288 180.698 218.829 181.019C218.37 181.341 217.767 181.502 217.021 181.502ZM217.383 180.021C217.876 180.021 218.29 179.906 218.623 179.676C218.967 179.435 219.231 179.12 219.415 178.729C219.61 178.339 219.73 177.909 219.776 177.438H217.744C217.021 177.438 216.505 177.564 216.195 177.817C215.896 178.069 215.747 178.385 215.747 178.764C215.747 179.154 215.891 179.464 216.178 179.694C216.476 179.912 216.878 180.021 217.383 180.021ZM223.402 181.295V172.755H225.021L225.159 174.253C225.423 173.725 225.807 173.311 226.312 173.013C226.829 172.703 227.42 172.548 228.086 172.548C229.119 172.548 229.928 172.869 230.514 173.512C231.111 174.155 231.409 175.113 231.409 176.388V181.295H229.601V176.577C229.601 174.924 228.924 174.098 227.569 174.098C226.892 174.098 226.33 174.339 225.882 174.821C225.446 175.303 225.228 175.992 225.228 176.887V181.295H223.402ZM236.71 178.678C236.262 178.678 235.849 178.626 235.47 178.523L234.729 179.246C234.856 179.326 235.011 179.395 235.194 179.453C235.378 179.51 235.636 179.562 235.969 179.608C236.302 179.653 236.756 179.699 237.329 179.745C238.466 179.849 239.287 180.124 239.792 180.572C240.297 181.008 240.549 181.593 240.549 182.328C240.549 182.833 240.412 183.309 240.136 183.757C239.872 184.216 239.453 184.584 238.879 184.859C238.317 185.146 237.594 185.29 236.71 185.29C235.516 185.29 234.546 185.06 233.8 184.601C233.065 184.153 232.698 183.47 232.698 182.552C232.698 182.196 232.79 181.84 232.973 181.484C233.168 181.14 233.473 180.813 233.886 180.503C233.645 180.4 233.432 180.291 233.249 180.176C233.077 180.049 232.922 179.923 232.784 179.797V179.384L234.265 177.868C233.599 177.294 233.266 176.543 233.266 175.613C233.266 175.05 233.398 174.54 233.662 174.08C233.937 173.61 234.333 173.237 234.85 172.961C235.367 172.686 235.986 172.548 236.71 172.548C237.192 172.548 237.639 172.617 238.053 172.755H241.238V173.96L239.723 174.046C239.998 174.517 240.136 175.039 240.136 175.613C240.136 176.187 239.998 176.703 239.723 177.162C239.459 177.622 239.069 177.989 238.552 178.264C238.047 178.54 237.433 178.678 236.71 178.678ZM236.71 177.249C237.238 177.249 237.662 177.111 237.984 176.835C238.317 176.548 238.483 176.147 238.483 175.63C238.483 175.102 238.317 174.7 237.984 174.425C237.662 174.149 237.238 174.011 236.71 174.011C236.17 174.011 235.734 174.149 235.401 174.425C235.08 174.7 234.919 175.102 234.919 175.63C234.919 176.147 235.08 176.548 235.401 176.835C235.734 177.111 236.17 177.249 236.71 177.249ZM234.42 182.38C234.42 182.873 234.638 183.241 235.074 183.482C235.51 183.734 236.055 183.86 236.71 183.86C237.341 183.86 237.852 183.723 238.242 183.447C238.632 183.183 238.827 182.827 238.827 182.38C238.827 182.047 238.695 181.76 238.431 181.519C238.167 181.289 237.668 181.146 236.933 181.088C236.382 181.054 235.895 181.002 235.47 180.933C235.068 181.151 234.793 181.387 234.643 181.639C234.494 181.892 234.42 182.139 234.42 182.38ZM246.18 181.502C245.342 181.502 244.596 181.318 243.942 180.951C243.299 180.572 242.794 180.049 242.426 179.384C242.059 178.718 241.875 177.943 241.875 177.059C241.875 176.164 242.053 175.377 242.409 174.7C242.777 174.023 243.282 173.495 243.924 173.116C244.579 172.737 245.336 172.548 246.197 172.548C247.035 172.548 247.764 172.737 248.384 173.116C249.004 173.483 249.486 173.977 249.83 174.597C250.175 175.217 250.347 175.9 250.347 176.646C250.347 176.761 250.341 176.887 250.33 177.025C250.33 177.151 250.324 177.294 250.313 177.455H243.666C243.724 178.282 243.993 178.913 244.475 179.349C244.969 179.774 245.537 179.986 246.18 179.986C246.697 179.986 247.127 179.872 247.471 179.642C247.827 179.401 248.091 179.079 248.264 178.678H250.089C249.859 179.481 249.4 180.153 248.711 180.692C248.034 181.232 247.19 181.502 246.18 181.502ZM246.18 174.046C245.572 174.046 245.032 174.23 244.562 174.597C244.091 174.953 243.804 175.492 243.701 176.215H248.522C248.487 175.55 248.252 175.022 247.816 174.631C247.38 174.241 246.834 174.046 246.18 174.046ZM256.889 185.083L258.938 180.589H258.439L255.064 172.755H257.044L259.661 179.074L262.399 172.755H264.327L258.817 185.083H256.889ZM268.705 181.502C267.89 181.502 267.155 181.318 266.501 180.951C265.858 180.572 265.347 180.049 264.968 179.384C264.59 178.706 264.4 177.92 264.4 177.025C264.4 176.129 264.59 175.349 264.968 174.683C265.359 174.006 265.881 173.483 266.535 173.116C267.19 172.737 267.918 172.548 268.722 172.548C269.537 172.548 270.266 172.737 270.909 173.116C271.563 173.483 272.08 174.006 272.458 174.683C272.849 175.349 273.044 176.129 273.044 177.025C273.044 177.92 272.849 178.706 272.458 179.384C272.08 180.049 271.563 180.572 270.909 180.951C270.254 181.318 269.52 181.502 268.705 181.502ZM268.705 179.935C269.141 179.935 269.543 179.826 269.91 179.608C270.289 179.389 270.593 179.068 270.823 178.643C271.052 178.207 271.167 177.668 271.167 177.025C271.167 176.382 271.052 175.848 270.823 175.423C270.605 174.987 270.306 174.66 269.927 174.442C269.56 174.224 269.158 174.115 268.722 174.115C268.286 174.115 267.878 174.224 267.499 174.442C267.132 174.66 266.834 174.987 266.604 175.423C266.375 175.848 266.26 176.382 266.26 177.025C266.26 177.668 266.375 178.207 266.604 178.643C266.834 179.068 267.132 179.389 267.499 179.608C267.867 179.826 268.269 179.935 268.705 179.935ZM277.824 181.502C276.791 181.502 275.976 181.18 275.379 180.537C274.794 179.894 274.501 178.936 274.501 177.662V172.755H276.326V177.472C276.326 179.125 277.004 179.952 278.358 179.952C279.035 179.952 279.592 179.711 280.028 179.229C280.464 178.747 280.683 178.058 280.683 177.162V172.755H282.508V181.295H280.889L280.751 179.797C280.487 180.325 280.097 180.744 279.581 181.054C279.075 181.352 278.49 181.502 277.824 181.502ZM284.485 181.295V172.755H286.121L286.276 174.373C286.574 173.811 286.988 173.369 287.516 173.047C288.055 172.714 288.704 172.548 289.461 172.548V174.459H288.962C288.457 174.459 288.003 174.545 287.602 174.717C287.211 174.878 286.896 175.159 286.655 175.561C286.425 175.951 286.31 176.497 286.31 177.197V181.295H284.485ZM298.085 181.502C297.006 181.502 296.116 181.238 295.416 180.709C294.716 180.181 294.314 179.481 294.211 178.609H296.053C296.145 178.999 296.363 179.338 296.708 179.625C297.052 179.9 297.505 180.038 298.068 180.038C298.619 180.038 299.021 179.923 299.273 179.694C299.526 179.464 299.652 179.2 299.652 178.902C299.652 178.465 299.474 178.173 299.118 178.023C298.774 177.863 298.292 177.719 297.672 177.593C297.19 177.49 296.708 177.352 296.225 177.18C295.755 177.008 295.359 176.766 295.037 176.457C294.727 176.135 294.572 175.705 294.572 175.165C294.572 174.419 294.859 173.799 295.433 173.306C296.007 172.8 296.811 172.548 297.844 172.548C298.797 172.548 299.566 172.777 300.151 173.237C300.748 173.696 301.098 174.344 301.202 175.182H299.445C299.388 174.815 299.216 174.528 298.929 174.321C298.653 174.115 298.28 174.011 297.809 174.011C297.35 174.011 296.994 174.109 296.742 174.304C296.489 174.488 296.363 174.729 296.363 175.027C296.363 175.326 296.535 175.561 296.88 175.733C297.236 175.906 297.7 176.06 298.274 176.198C298.848 176.325 299.376 176.474 299.858 176.646C300.352 176.807 300.748 177.048 301.047 177.369C301.345 177.691 301.494 178.161 301.494 178.781C301.506 179.562 301.202 180.21 300.582 180.727C299.973 181.243 299.141 181.502 298.085 181.502ZM306.404 181.295C305.566 181.295 304.901 181.094 304.407 180.692C303.913 180.279 303.667 179.55 303.667 178.506V174.287H302.203V172.755H303.667L303.89 170.585H305.492V172.755H307.902V174.287H305.492V178.506C305.492 178.976 305.589 179.303 305.784 179.487C305.991 179.659 306.341 179.745 306.835 179.745H307.816V181.295H306.404ZM313.216 181.502C312.401 181.502 311.666 181.318 311.012 180.951C310.369 180.572 309.858 180.049 309.48 179.384C309.101 178.706 308.911 177.92 308.911 177.025C308.911 176.129 309.101 175.349 309.48 174.683C309.87 174.006 310.392 173.483 311.047 173.116C311.701 172.737 312.43 172.548 313.233 172.548C314.048 172.548 314.777 172.737 315.42 173.116C316.074 173.483 316.591 174.006 316.97 174.683C317.36 175.349 317.555 176.129 317.555 177.025C317.555 177.92 317.36 178.706 316.97 179.384C316.591 180.049 316.074 180.572 315.42 180.951C314.766 181.318 314.031 181.502 313.216 181.502ZM313.216 179.935C313.652 179.935 314.054 179.826 314.421 179.608C314.8 179.389 315.104 179.068 315.334 178.643C315.564 178.207 315.678 177.668 315.678 177.025C315.678 176.382 315.564 175.848 315.334 175.423C315.116 174.987 314.817 174.66 314.439 174.442C314.071 174.224 313.669 174.115 313.233 174.115C312.797 174.115 312.39 174.224 312.011 174.442C311.643 174.66 311.345 174.987 311.115 175.423C310.886 175.848 310.771 176.382 310.771 177.025C310.771 177.668 310.886 178.207 311.115 178.643C311.345 179.068 311.643 179.389 312.011 179.608C312.378 179.826 312.78 179.935 313.216 179.935ZM319.185 181.295V172.755H320.82L320.975 174.373C321.274 173.811 321.687 173.369 322.215 173.047C322.755 172.714 323.403 172.548 324.161 172.548V174.459H323.661C323.156 174.459 322.703 174.545 322.301 174.717C321.911 174.878 321.595 175.159 321.354 175.561C321.125 175.951 321.01 176.497 321.01 177.197V181.295H319.185ZM329.141 181.502C328.303 181.502 327.556 181.318 326.902 180.951C326.259 180.572 325.754 180.049 325.387 179.384C325.02 178.718 324.836 177.943 324.836 177.059C324.836 176.164 325.014 175.377 325.37 174.7C325.737 174.023 326.242 173.495 326.885 173.116C327.539 172.737 328.297 172.548 329.158 172.548C329.996 172.548 330.725 172.737 331.344 173.116C331.964 173.483 332.446 173.977 332.791 174.597C333.135 175.217 333.307 175.9 333.307 176.646C333.307 176.761 333.302 176.887 333.29 177.025C333.29 177.151 333.284 177.294 333.273 177.455H326.627C326.684 178.282 326.954 178.913 327.436 179.349C327.929 179.774 328.498 179.986 329.141 179.986C329.657 179.986 330.088 179.872 330.432 179.642C330.788 179.401 331.052 179.079 331.224 178.678H333.049C332.82 179.481 332.36 180.153 331.672 180.692C330.994 181.232 330.151 181.502 329.141 181.502ZM329.141 174.046C328.532 174.046 327.993 174.23 327.522 174.597C327.051 174.953 326.764 175.492 326.661 176.215H331.482C331.448 175.55 331.212 175.022 330.776 174.631C330.34 174.241 329.795 174.046 329.141 174.046Z" fill="#0A071B"/>
<circle opacity="0.1" cx="148.656" cy="232.246" r="27.9801" fill="#EC9D40"/>
<path fill-rule="evenodd" clip-rule="evenodd" d="M143.546 227V227.398H141.93C141.449 227.398 141.04 227.751 140.971 228.228L140.735 229.834C140.276 232.97 140.276 236.157 140.735 239.293C140.941 240.698 142.074 241.785 143.487 241.931L144.164 242.002C147.152 242.311 150.163 242.311 153.151 242.002L153.827 241.931C155.24 241.785 156.373 240.698 156.579 239.293C157.039 236.157 157.039 232.97 156.579 229.834L156.344 228.228C156.274 227.751 155.866 227.398 155.385 227.398H153.769V227C153.769 224.668 152.19 222.631 149.93 222.05C149.095 221.835 148.219 221.835 147.384 222.05C145.125 222.631 143.546 224.668 143.546 227ZM149.528 223.613C148.957 223.466 148.358 223.466 147.786 223.613C146.24 224.011 145.16 225.404 145.16 227V227.398H152.155V227C152.155 225.404 151.074 224.011 149.528 223.613ZM145.16 229.013C145.16 228.567 144.798 228.206 144.353 228.206C143.907 228.206 143.546 228.567 143.546 229.013V231.165C143.546 231.611 143.907 231.972 144.353 231.972C144.798 231.972 145.16 231.611 145.16 231.165V229.013ZM153.769 229.013C153.769 228.567 153.408 228.206 152.962 228.206C152.516 228.206 152.155 228.567 152.155 229.013V231.165C152.155 231.611 152.516 231.972 152.962 231.972C153.408 231.972 153.769 231.611 153.769 231.165V229.013Z" fill="#EC9D40"/>
<rect opacity="0.1" x="189.551" y="212.875" width="138.825" height="11.8377" rx="5.91887" fill="#0A071B" fill-opacity="0.7"/>
<rect opacity="0.1" x="189.551" y="239.779" width="77.4834" height="11.8377" rx="5.91887" fill="#0A071B" fill-opacity="0.7"/>
<path d="M413.392 232.245C413.392 247.401 401.106 259.687 385.95 259.687C370.794 259.687 358.508 247.401 358.508 232.245C358.508 217.089 370.794 204.803 385.95 204.803C401.106 204.803 413.392 217.089 413.392 232.245ZM366.597 232.245C366.597 242.933 375.261 251.598 385.95 251.598C396.638 251.598 405.303 242.933 405.303 232.245C405.303 221.556 396.638 212.892 385.95 212.892C375.261 212.892 366.597 221.556 366.597 232.245Z" fill="#EEEEEF"/>
<mask id="path-8-inside-1_1041_555" fill="white">
<path d="M409.381 232.245C411.596 232.245 413.422 234.05 413.099 236.241C412.383 241.108 410.367 245.718 407.231 249.57C403.246 254.465 397.695 257.837 391.515 259.117C385.334 260.397 378.901 259.507 373.3 256.597C367.699 253.688 363.272 248.936 360.765 243.143C358.258 237.351 357.825 230.871 359.538 224.796C361.251 218.721 365.006 213.422 370.171 209.793C375.335 206.164 381.592 204.425 387.888 204.871C392.843 205.222 397.584 206.909 401.622 209.718C403.44 210.983 403.506 213.549 401.99 215.164C400.473 216.779 397.95 216.816 396.058 215.663C393.427 214.058 390.434 213.093 387.321 212.873C382.866 212.557 378.438 213.788 374.783 216.356C371.128 218.924 368.471 222.674 367.259 226.973C366.046 231.272 366.353 235.858 368.127 239.958C369.901 244.057 373.034 247.42 376.998 249.479C380.961 251.538 385.514 252.168 389.888 251.262C394.262 250.356 398.19 247.97 401.01 244.506C402.98 242.086 404.326 239.244 404.958 236.227C405.412 234.059 407.166 232.245 409.381 232.245Z"/>
</mask>
<path d="M409.381 232.245C411.596 232.245 413.422 234.05 413.099 236.241C412.383 241.108 410.367 245.718 407.231 249.57C403.246 254.465 397.695 257.837 391.515 259.117C385.334 260.397 378.901 259.507 373.3 256.597C367.699 253.688 363.272 248.936 360.765 243.143C358.258 237.351 357.825 230.871 359.538 224.796C361.251 218.721 365.006 213.422 370.171 209.793C375.335 206.164 381.592 204.425 387.888 204.871C392.843 205.222 397.584 206.909 401.622 209.718C403.44 210.983 403.506 213.549 401.99 215.164C400.473 216.779 397.95 216.816 396.058 215.663C393.427 214.058 390.434 213.093 387.321 212.873C382.866 212.557 378.438 213.788 374.783 216.356C371.128 218.924 368.471 222.674 367.259 226.973C366.046 231.272 366.353 235.858 368.127 239.958C369.901 244.057 373.034 247.42 376.998 249.479C380.961 251.538 385.514 252.168 389.888 251.262C394.262 250.356 398.19 247.97 401.01 244.506C402.98 242.086 404.326 239.244 404.958 236.227C405.412 234.059 407.166 232.245 409.381 232.245Z" stroke="#8DDD2B" stroke-width="34.4371" stroke-linecap="round" mask="url(#path-8-inside-1_1041_555)"/>
<circle opacity="0.1" cx="148.656" cy="311.882" r="27.9801" fill="#FD8B8B"/>
<path d="M156.351 304.614H141.486L140.216 302.338C140.073 302.082 139.804 301.924 139.511 301.924H137.897C137.451 301.924 137.09 302.285 137.09 302.731C137.09 303.177 137.451 303.538 137.897 303.538H139.037L140.291 305.785L143.181 312.181L143.184 312.187L143.439 312.75L140.537 315.846C140.328 316.069 140.263 316.39 140.368 316.676C140.473 316.963 140.731 317.165 141.034 317.2L143.679 317.502C146.988 317.881 150.329 317.881 153.638 317.502L156.283 317.2C156.726 317.149 157.044 316.749 156.994 316.307C156.943 315.864 156.543 315.546 156.1 315.596L153.455 315.899C150.268 316.263 147.049 316.263 143.862 315.899L142.813 315.779L144.943 313.506C144.963 313.485 144.983 313.462 145 313.438L145.81 313.544C146.946 313.691 148.093 313.72 149.234 313.63C151.896 313.419 154.363 312.153 156.086 310.112L156.708 309.375C156.729 309.351 156.748 309.325 156.766 309.298L157.925 307.531C158.747 306.278 157.849 304.614 156.351 304.614Z" fill="#FD8B8B"/>
<path d="M142.74 318.873C141.848 318.873 141.125 319.596 141.125 320.488C141.125 321.379 141.848 322.102 142.74 322.102C143.631 322.102 144.354 321.379 144.354 320.488C144.354 319.596 143.631 318.873 142.74 318.873Z" fill="#FD8B8B"/>
<path d="M152.963 320.488C152.963 319.596 153.686 318.873 154.577 318.873C155.469 318.873 156.192 319.596 156.192 320.488C156.192 321.379 155.469 322.102 154.577 322.102C153.686 322.102 152.963 321.379 152.963 320.488Z" fill="#FD8B8B"/>
<rect opacity="0.1" x="189.551" y="292.511" width="138.825" height="11.8377" rx="5.91887" fill="#0A071B" fill-opacity="0.7"/>
<rect opacity="0.1" x="189.551" y="319.415" width="77.4834" height="11.8377" rx="5.91887" fill="#0A071B" fill-opacity="0.7"/>
<path d="M412.314 311.882C412.314 327.037 400.028 339.324 384.872 339.324C369.716 339.324 357.43 327.037 357.43 311.882C357.43 296.726 369.716 284.439 384.872 284.439C400.028 284.439 412.314 296.726 412.314 311.882ZM365.519 311.882C365.519 322.57 374.183 331.235 384.872 331.235C395.56 331.235 404.225 322.57 404.225 311.882C404.225 301.193 395.56 292.528 384.872 292.528C374.183 292.528 365.519 301.193 365.519 311.882Z" fill="#EEEEEF"/>
<mask id="path-14-inside-2_1041_555" fill="white">
<path d="M408.303 311.882C410.518 311.882 412.344 313.687 412.021 315.878C411.623 318.585 410.821 321.225 409.635 323.707C407.871 327.4 405.304 330.652 402.121 333.224C398.938 335.797 395.221 337.625 391.24 338.574C388.564 339.213 385.815 339.444 383.084 339.265C380.874 339.121 379.492 336.957 379.957 334.791C380.421 332.626 382.563 331.291 384.778 331.302C386.323 331.309 387.867 331.132 389.378 330.772C392.195 330.1 394.827 328.806 397.079 326.986C399.332 325.165 401.148 322.864 402.396 320.251C403.066 318.848 403.563 317.375 403.879 315.864C404.334 313.696 406.088 311.882 408.303 311.882Z"/>
</mask>
<path d="M408.303 311.882C410.518 311.882 412.344 313.687 412.021 315.878C411.623 318.585 410.821 321.225 409.635 323.707C407.871 327.4 405.304 330.652 402.121 333.224C398.938 335.797 395.221 337.625 391.24 338.574C388.564 339.213 385.815 339.444 383.084 339.265C380.874 339.121 379.492 336.957 379.957 334.791C380.421 332.626 382.563 331.291 384.778 331.302C386.323 331.309 387.867 331.132 389.378 330.772C392.195 330.1 394.827 328.806 397.079 326.986C399.332 325.165 401.148 322.864 402.396 320.251C403.066 318.848 403.563 317.375 403.879 315.864C404.334 313.696 406.088 311.882 408.303 311.882Z" stroke="#8DDD2B" stroke-width="34.4371" stroke-linecap="round" mask="url(#path-14-inside-2_1041_555)"/>
<g filter="url(#filter0_d_1041_555)">
<rect x="7" y="4" width="290" height="97" rx="8.12183" fill="#FDFDFD"/>
<path d="M39.7998 48V37.074H35.6058V35.04H46.1628V37.074H41.9688V48H39.7998ZM46.3453 48V38.28H48.2623V40.647L48.0283 40.341C48.1483 40.017 48.3073 39.723 48.5053 39.459C48.7093 39.189 48.9523 38.967 49.2343 38.793C49.4743 38.631 49.7383 38.505 50.0263 38.415C50.3203 38.319 50.6203 38.262 50.9263 38.244C51.2323 38.22 51.5293 38.232 51.8173 38.28V40.305C51.5293 40.221 51.1963 40.194 50.8183 40.224C50.4463 40.254 50.1103 40.359 49.8103 40.539C49.5103 40.701 49.2643 40.908 49.0723 41.16C48.8863 41.412 48.7483 41.7 48.6583 42.024C48.5683 42.342 48.5233 42.687 48.5233 43.059V48H46.3453ZM54.1539 52.32L56.0259 47.181L56.0619 48.693L51.8229 38.28H54.0819L57.0879 45.984H56.5119L59.4369 38.28H61.6059L56.1879 52.32H54.1539ZM66.6777 48V38.127C66.6777 37.881 66.6867 37.611 66.7047 37.317C66.7227 37.017 66.7737 36.72 66.8577 36.426C66.9417 36.132 67.0947 35.865 67.3167 35.625C67.5927 35.319 67.8897 35.109 68.2077 34.995C68.5317 34.875 68.8497 34.809 69.1617 34.797C69.4737 34.779 69.7467 34.77 69.9807 34.77H71.1957V36.534H70.0707C69.6567 36.534 69.3477 36.639 69.1437 36.849C68.9457 37.053 68.8467 37.323 68.8467 37.659V48H66.6777ZM65.1117 39.981V38.28H71.1957V39.981H65.1117ZM76.2159 48.27C75.2439 48.27 74.3949 48.051 73.6689 47.613C72.9429 47.175 72.3789 46.572 71.9769 45.804C71.5809 45.03 71.3829 44.142 71.3829 43.14C71.3829 42.12 71.5869 41.226 71.9949 40.458C72.4029 39.69 72.9699 39.09 73.6959 38.658C74.4219 38.226 75.2619 38.01 76.2159 38.01C77.1939 38.01 78.0459 38.229 78.7719 38.667C79.4979 39.105 80.0619 39.711 80.4639 40.485C80.8659 41.253 81.0669 42.138 81.0669 43.14C81.0669 44.148 80.8629 45.039 80.4549 45.813C80.0529 46.581 79.4889 47.184 78.7629 47.622C78.0369 48.054 77.1879 48.27 76.2159 48.27ZM76.2159 46.236C77.0799 46.236 77.7219 45.948 78.1419 45.372C78.5619 44.796 78.7719 44.052 78.7719 43.14C78.7719 42.198 78.5589 41.448 78.1329 40.89C77.7069 40.326 77.0679 40.044 76.2159 40.044C75.6339 40.044 75.1539 40.176 74.7759 40.44C74.4039 40.698 74.1279 41.061 73.9479 41.529C73.7679 41.991 73.6779 42.528 73.6779 43.14C73.6779 44.082 73.8909 44.835 74.3169 45.399C74.7489 45.957 75.3819 46.236 76.2159 46.236ZM82.6898 48V38.28H84.6068V40.647L84.3728 40.341C84.4928 40.017 84.6518 39.723 84.8498 39.459C85.0538 39.189 85.2968 38.967 85.5788 38.793C85.8188 38.631 86.0828 38.505 86.3708 38.415C86.6648 38.319 86.9648 38.262 87.2708 38.244C87.5768 38.22 87.8738 38.232 88.1618 38.28V40.305C87.8738 40.221 87.5408 40.194 87.1628 40.224C86.7908 40.254 86.4548 40.359 86.1548 40.539C85.8548 40.701 85.6088 40.908 85.4168 41.16C85.2308 41.412 85.0928 41.7 85.0028 42.024C84.9128 42.342 84.8678 42.687 84.8678 43.059V48H82.6898ZM93.6088 48V38.127C93.6088 37.881 93.6178 37.611 93.6358 37.317C93.6538 37.017 93.7048 36.72 93.7888 36.426C93.8728 36.132 94.0258 35.865 94.2478 35.625C94.5238 35.319 94.8208 35.109 95.1388 34.995C95.4628 34.875 95.7808 34.809 96.0928 34.797C96.4048 34.779 96.6778 34.77 96.9118 34.77H98.1268V36.534H97.0018C96.5878 36.534 96.2788 36.639 96.0748 36.849C95.8768 37.053 95.7778 37.323 95.7778 37.659V48H93.6088ZM92.0428 39.981V38.28H98.1268V39.981H92.0428ZM99.2055 48V38.28H101.123V40.647L100.889 40.341C101.009 40.017 101.168 39.723 101.366 39.459C101.57 39.189 101.813 38.967 102.095 38.793C102.335 38.631 102.599 38.505 102.887 38.415C103.181 38.319 103.481 38.262 103.787 38.244C104.093 38.22 104.39 38.232 104.678 38.28V40.305C104.39 40.221 104.057 40.194 103.679 40.224C103.307 40.254 102.971 40.359 102.671 40.539C102.371 40.701 102.125 40.908 101.933 41.16C101.747 41.412 101.609 41.7 101.519 42.024C101.429 42.342 101.384 42.687 101.384 43.059V48H99.2055ZM110.278 48.27C109.294 48.27 108.43 48.057 107.686 47.631C106.942 47.205 106.36 46.614 105.94 45.858C105.526 45.102 105.319 44.232 105.319 43.248C105.319 42.186 105.523 41.265 105.931 40.485C106.339 39.699 106.906 39.09 107.632 38.658C108.358 38.226 109.198 38.01 110.152 38.01C111.16 38.01 112.015 38.247 112.717 38.721C113.425 39.189 113.95 39.852 114.292 40.71C114.634 41.568 114.763 42.579 114.679 43.743H112.528V42.951C112.522 41.895 112.336 41.124 111.97 40.638C111.604 40.152 111.028 39.909 110.242 39.909C109.354 39.909 108.694 40.185 108.262 40.737C107.83 41.283 107.614 42.084 107.614 43.14C107.614 44.124 107.83 44.886 108.262 45.426C108.694 45.966 109.324 46.236 110.152 46.236C110.686 46.236 111.145 46.119 111.529 45.885C111.919 45.645 112.219 45.3 112.429 44.85L114.571 45.498C114.199 46.374 113.623 47.055 112.843 47.541C112.069 48.027 111.214 48.27 110.278 48.27ZM106.93 43.743V42.105H113.617V43.743H106.93ZM120.746 48.27C119.762 48.27 118.898 48.057 118.154 47.631C117.41 47.205 116.828 46.614 116.408 45.858C115.994 45.102 115.787 44.232 115.787 43.248C115.787 42.186 115.991 41.265 116.399 40.485C116.807 39.699 117.374 39.09 118.1 38.658C118.826 38.226 119.666 38.01 120.62 38.01C121.628 38.01 122.483 38.247 123.185 38.721C123.893 39.189 124.418 39.852 124.76 40.71C125.102 41.568 125.231 42.579 125.147 43.743H122.996V42.951C122.99 41.895 122.804 41.124 122.438 40.638C122.072 40.152 121.496 39.909 120.71 39.909C119.822 39.909 119.162 40.185 118.73 40.737C118.298 41.283 118.082 42.084 118.082 43.14C118.082 44.124 118.298 44.886 118.73 45.426C119.162 45.966 119.792 46.236 120.62 46.236C121.154 46.236 121.613 46.119 121.997 45.885C122.387 45.645 122.687 45.3 122.897 44.85L125.039 45.498C124.667 46.374 124.091 47.055 123.311 47.541C122.537 48.027 121.682 48.27 120.746 48.27ZM117.398 43.743V42.105H124.085V43.743H117.398Z" fill="#314EE7"/>
<path opacity="0.8" d="M37.4768 68.785L36.4128 68.015L37.4768 66.713L35.8458 66.258L36.2518 65.005L37.8268 65.621L37.7428 63.92H39.0588L38.9748 65.621L40.5568 65.005L40.9628 66.258L39.3248 66.713L40.3888 68.015L39.3248 68.785L38.4008 67.385L37.4768 68.785ZM42.7769 74V63.92H44.2609L49.2239 71.41V63.92H50.7079V74H49.2239L44.2609 66.503V74H42.7769ZM55.9446 74.21C55.1886 74.21 54.533 74.0397 53.9776 73.699C53.4223 73.3583 52.993 72.8893 52.6896 72.292C52.391 71.69 52.2416 70.997 52.2416 70.213C52.2416 69.4243 52.3956 68.7313 52.7036 68.134C53.0116 67.532 53.4433 67.0653 53.9986 66.734C54.554 66.398 55.2026 66.23 55.9446 66.23C56.7006 66.23 57.3563 66.4003 57.9116 66.741C58.467 67.0817 58.8963 67.5507 59.1996 68.148C59.503 68.7453 59.6546 69.4337 59.6546 70.213C59.6546 71.0017 59.5006 71.697 59.1926 72.299C58.8893 72.8963 58.46 73.3653 57.9046 73.706C57.3493 74.042 56.696 74.21 55.9446 74.21ZM55.9446 72.831C56.668 72.831 57.207 72.5883 57.5616 72.103C57.921 71.613 58.1006 70.983 58.1006 70.213C58.1006 69.4243 57.9186 68.7943 57.5546 68.323C57.1953 67.847 56.6586 67.609 55.9446 67.609C55.4546 67.609 55.051 67.721 54.7336 67.945C54.4163 68.1643 54.1806 68.47 54.0266 68.862C53.8726 69.2493 53.7956 69.6997 53.7956 70.213C53.7956 71.0063 53.9776 71.641 54.3416 72.117C54.7056 72.593 55.24 72.831 55.9446 72.831ZM67.2296 74.21C66.455 74.21 65.797 74.0373 65.2556 73.692C64.7143 73.3467 64.299 72.873 64.0096 72.271C63.725 71.669 63.5803 70.9853 63.5756 70.22C63.5803 69.4407 63.7296 68.7523 64.0236 68.155C64.3176 67.553 64.7376 67.0817 65.2836 66.741C65.8296 66.4003 66.4853 66.23 67.2506 66.23C68.0766 66.23 68.7813 66.4353 69.3646 66.846C69.9526 67.2567 70.34 67.819 70.5266 68.533L69.0706 68.953C68.926 68.5283 68.688 68.1993 68.3566 67.966C68.03 67.728 67.6543 67.609 67.2296 67.609C66.749 67.609 66.3546 67.7233 66.0466 67.952C65.7386 68.176 65.51 68.484 65.3606 68.876C65.2113 69.268 65.1343 69.716 65.1296 70.22C65.1343 70.9993 65.3116 71.6293 65.6616 72.11C66.0163 72.5907 66.539 72.831 67.2296 72.831C67.701 72.831 68.0813 72.7237 68.3706 72.509C68.6646 72.2897 68.8886 71.977 69.0426 71.571L70.5266 71.921C70.2793 72.6583 69.871 73.2253 69.3016 73.622C68.7323 74.014 68.0416 74.21 67.2296 74.21ZM71.9527 74V66.44H73.2547V68.274L73.0727 68.036C73.166 67.7933 73.2873 67.5717 73.4367 67.371C73.586 67.1657 73.7587 66.9977 73.9547 66.867C74.146 66.727 74.3583 66.6197 74.5917 66.545C74.8297 66.4657 75.0723 66.419 75.3197 66.405C75.567 66.3863 75.805 66.398 76.0337 66.44V67.812C75.7863 67.7467 75.511 67.728 75.2077 67.756C74.909 67.784 74.6337 67.8797 74.3817 68.043C74.1437 68.197 73.9547 68.3837 73.8147 68.603C73.6793 68.8223 73.5813 69.0673 73.5207 69.338C73.46 69.604 73.4297 69.8863 73.4297 70.185V74H71.9527ZM80.583 74.21C79.8317 74.21 79.1713 74.0467 78.602 73.72C78.0373 73.3887 77.5963 72.929 77.279 72.341C76.9663 71.7483 76.81 71.0623 76.81 70.283C76.81 69.457 76.964 68.7407 77.272 68.134C77.5847 67.5273 78.0187 67.0583 78.574 66.727C79.1293 66.3957 79.7757 66.23 80.513 66.23C81.283 66.23 81.9387 66.4097 82.48 66.769C83.0213 67.1237 83.425 67.63 83.691 68.288C83.9617 68.946 84.069 69.7277 84.013 70.633H82.55V70.101C82.5407 69.2237 82.3727 68.575 82.046 68.155C81.724 67.735 81.2317 67.525 80.569 67.525C79.8363 67.525 79.2857 67.756 78.917 68.218C78.5483 68.68 78.364 69.3473 78.364 70.22C78.364 71.0507 78.5483 71.6947 78.917 72.152C79.2857 72.6047 79.8177 72.831 80.513 72.831C80.9703 72.831 81.3647 72.7283 81.696 72.523C82.032 72.313 82.2933 72.0143 82.48 71.627L83.915 72.082C83.621 72.7587 83.1753 73.2837 82.578 73.657C81.9807 74.0257 81.3157 74.21 80.583 74.21ZM77.888 70.633V69.492H83.285V70.633H77.888ZM88.5865 74.21C87.8818 74.21 87.2728 74.035 86.7595 73.685C86.2508 73.335 85.8565 72.859 85.5765 72.257C85.3012 71.6503 85.1635 70.969 85.1635 70.213C85.1635 69.4523 85.3035 68.7733 85.5835 68.176C85.8635 67.574 86.2602 67.1003 86.7735 66.755C87.2915 66.405 87.9052 66.23 88.6145 66.23C89.3285 66.23 89.9282 66.405 90.4135 66.755C90.9035 67.1003 91.2722 67.574 91.5195 68.176C91.7715 68.778 91.8975 69.457 91.8975 70.213C91.8975 70.969 91.7715 71.648 91.5195 72.25C91.2675 72.852 90.8965 73.3303 90.4065 73.685C89.9165 74.035 89.3098 74.21 88.5865 74.21ZM88.7895 72.887C89.2702 72.887 89.6622 72.7727 89.9655 72.544C90.2688 72.3153 90.4905 72.0003 90.6305 71.599C90.7705 71.1977 90.8405 70.7357 90.8405 70.213C90.8405 69.6903 90.7682 69.2283 90.6235 68.827C90.4835 68.4257 90.2642 68.113 89.9655 67.889C89.6715 67.665 89.2958 67.553 88.8385 67.553C88.3532 67.553 87.9542 67.672 87.6415 67.91C87.3288 68.148 87.0955 68.4677 86.9415 68.869C86.7922 69.2703 86.7175 69.7183 86.7175 70.213C86.7175 70.7123 86.7922 71.165 86.9415 71.571C87.0955 71.9723 87.3242 72.292 87.6275 72.53C87.9355 72.768 88.3228 72.887 88.7895 72.887ZM90.8405 74V68.561H90.6725V63.92H92.1425V74H90.8405ZM94.2411 65.201V63.78H95.7041V65.201H94.2411ZM94.2411 74V66.44H95.7041V74H94.2411ZM102.132 74C101.656 74.0933 101.19 74.133 100.732 74.119C100.275 74.105 99.8665 74.0163 99.5072 73.853C99.1478 73.6897 98.8772 73.433 98.6952 73.083C98.5318 72.7703 98.4432 72.453 98.4292 72.131C98.4198 71.8043 98.4152 71.4357 98.4152 71.025V64.34H99.8852V70.955C99.8852 71.2583 99.8875 71.522 99.8922 71.746C99.9015 71.97 99.9505 72.159 100.039 72.313C100.207 72.6023 100.473 72.768 100.837 72.81C101.206 72.8473 101.638 72.831 102.132 72.761V74ZM96.9662 67.616V66.44H102.132V67.616H96.9662ZM109.763 74.21C108.988 74.21 108.33 74.0373 107.789 73.692C107.247 73.3467 106.832 72.873 106.543 72.271C106.258 71.669 106.113 70.9853 106.109 70.22C106.113 69.4407 106.263 68.7523 106.557 68.155C106.851 67.553 107.271 67.0817 107.817 66.741C108.363 66.4003 109.018 66.23 109.784 66.23C110.61 66.23 111.314 66.4353 111.898 66.846C112.486 67.2567 112.873 67.819 113.06 68.533L111.604 68.953C111.459 68.5283 111.221 68.1993 110.89 67.966C110.563 67.728 110.187 67.609 109.763 67.609C109.282 67.609 108.888 67.7233 108.58 67.952C108.272 68.176 108.043 68.484 107.894 68.876C107.744 69.268 107.667 69.716 107.663 70.22C107.667 70.9993 107.845 71.6293 108.195 72.11C108.549 72.5907 109.072 72.831 109.763 72.831C110.234 72.831 110.614 72.7237 110.904 72.509C111.198 72.2897 111.422 71.977 111.576 71.571L113.06 71.921C112.812 72.6583 112.404 73.2253 111.835 73.622C111.265 74.014 110.575 74.21 109.763 74.21ZM116.525 74.21C115.965 74.21 115.496 74.1073 115.118 73.902C114.74 73.692 114.453 73.4167 114.257 73.076C114.066 72.7307 113.97 72.3527 113.97 71.942C113.97 71.5593 114.038 71.2233 114.173 70.934C114.308 70.6447 114.509 70.3997 114.775 70.199C115.041 69.9937 115.368 69.828 115.755 69.702C116.091 69.604 116.471 69.5177 116.896 69.443C117.321 69.3683 117.766 69.2983 118.233 69.233C118.704 69.1677 119.171 69.1023 119.633 69.037L119.101 69.331C119.11 68.7383 118.984 68.2997 118.723 68.015C118.466 67.7257 118.023 67.581 117.393 67.581C116.996 67.581 116.632 67.6743 116.301 67.861C115.97 68.043 115.739 68.3463 115.608 68.771L114.243 68.351C114.43 67.7023 114.784 67.1867 115.307 66.804C115.834 66.4213 116.534 66.23 117.407 66.23C118.084 66.23 118.672 66.3467 119.171 66.58C119.675 66.8087 120.044 67.1727 120.277 67.672C120.398 67.9193 120.473 68.1807 120.501 68.456C120.529 68.7313 120.543 69.0277 120.543 69.345V74H119.248V72.271L119.5 72.495C119.187 73.0737 118.788 73.5053 118.303 73.79C117.822 74.07 117.23 74.21 116.525 74.21ZM116.784 73.013C117.199 73.013 117.556 72.9407 117.855 72.796C118.154 72.6467 118.394 72.4577 118.576 72.229C118.758 72.0003 118.877 71.7623 118.933 71.515C119.012 71.291 119.057 71.039 119.066 70.759C119.08 70.479 119.087 70.255 119.087 70.087L119.563 70.262C119.101 70.332 118.681 70.395 118.303 70.451C117.925 70.507 117.582 70.563 117.274 70.619C116.971 70.6703 116.7 70.7333 116.462 70.808C116.261 70.878 116.082 70.962 115.923 71.06C115.769 71.158 115.645 71.277 115.552 71.417C115.463 71.557 115.419 71.7273 115.419 71.928C115.419 72.124 115.468 72.306 115.566 72.474C115.664 72.6373 115.813 72.768 116.014 72.866C116.215 72.964 116.471 73.013 116.784 73.013ZM122.361 74V66.44H123.663V68.274L123.481 68.036C123.574 67.7933 123.696 67.5717 123.845 67.371C123.994 67.1657 124.167 66.9977 124.363 66.867C124.554 66.727 124.767 66.6197 125 66.545C125.238 66.4657 125.481 66.419 125.728 66.405C125.975 66.3863 126.213 66.398 126.442 66.44V67.812C126.195 67.7467 125.919 67.728 125.616 67.756C125.317 67.784 125.042 67.8797 124.79 68.043C124.552 68.197 124.363 68.3837 124.223 68.603C124.088 68.8223 123.99 69.0673 123.929 69.338C123.868 69.604 123.838 69.8863 123.838 70.185V74H122.361ZM130.641 74.21C129.937 74.21 129.328 74.035 128.814 73.685C128.306 73.335 127.911 72.859 127.631 72.257C127.356 71.6503 127.218 70.969 127.218 70.213C127.218 69.4523 127.358 68.7733 127.638 68.176C127.918 67.574 128.315 67.1003 128.828 66.755C129.346 66.405 129.96 66.23 130.669 66.23C131.383 66.23 131.983 66.405 132.468 66.755C132.958 67.1003 133.327 67.574 133.574 68.176C133.826 68.778 133.952 69.457 133.952 70.213C133.952 70.969 133.826 71.648 133.574 72.25C133.322 72.852 132.951 73.3303 132.461 73.685C131.971 74.035 131.365 74.21 130.641 74.21ZM130.844 72.887C131.325 72.887 131.717 72.7727 132.02 72.544C132.324 72.3153 132.545 72.0003 132.685 71.599C132.825 71.1977 132.895 70.7357 132.895 70.213C132.895 69.6903 132.823 69.2283 132.678 68.827C132.538 68.4257 132.319 68.113 132.02 67.889C131.726 67.665 131.351 67.553 130.893 67.553C130.408 67.553 130.009 67.672 129.696 67.91C129.384 68.148 129.15 68.4677 128.996 68.869C128.847 69.2703 128.772 69.7183 128.772 70.213C128.772 70.7123 128.847 71.165 128.996 71.571C129.15 71.9723 129.379 72.292 129.682 72.53C129.99 72.768 130.378 72.887 130.844 72.887ZM132.895 74V68.561H132.727V63.92H134.197V74H132.895ZM138.959 74V66.44H140.261V68.274L140.079 68.036C140.172 67.7933 140.293 67.5717 140.443 67.371C140.592 67.1657 140.765 66.9977 140.961 66.867C141.152 66.727 141.364 66.6197 141.598 66.545C141.836 66.4657 142.078 66.419 142.326 66.405C142.573 66.3863 142.811 66.398 143.04 66.44V67.812C142.792 67.7467 142.517 67.728 142.214 67.756C141.915 67.784 141.64 67.8797 141.388 68.043C141.15 68.197 140.961 68.3837 140.821 68.603C140.685 68.8223 140.587 69.0673 140.527 69.338C140.466 69.604 140.436 69.8863 140.436 70.185V74H138.959ZM147.589 74.21C146.838 74.21 146.177 74.0467 145.608 73.72C145.043 73.3887 144.602 72.929 144.285 72.341C143.972 71.7483 143.816 71.0623 143.816 70.283C143.816 69.457 143.97 68.7407 144.278 68.134C144.591 67.5273 145.025 67.0583 145.58 66.727C146.135 66.3957 146.782 66.23 147.519 66.23C148.289 66.23 148.945 66.4097 149.486 66.769C150.027 67.1237 150.431 67.63 150.697 68.288C150.968 68.946 151.075 69.7277 151.019 70.633H149.556V70.101C149.547 69.2237 149.379 68.575 149.052 68.155C148.73 67.735 148.238 67.525 147.575 67.525C146.842 67.525 146.292 67.756 145.923 68.218C145.554 68.68 145.37 69.3473 145.37 70.22C145.37 71.0507 145.554 71.6947 145.923 72.152C146.292 72.6047 146.824 72.831 147.519 72.831C147.976 72.831 148.371 72.7283 148.702 72.523C149.038 72.313 149.299 72.0143 149.486 71.627L150.921 72.082C150.627 72.7587 150.181 73.2837 149.584 73.657C148.987 74.0257 148.322 74.21 147.589 74.21ZM144.894 70.633V69.492H150.291V70.633H144.894ZM155.592 74.21C154.888 74.21 154.279 74.035 153.765 73.685C153.257 73.335 152.862 72.859 152.582 72.257C152.307 71.6503 152.169 70.969 152.169 70.213C152.169 69.4523 152.309 68.7733 152.589 68.176C152.869 67.574 153.266 67.1003 153.779 66.755C154.297 66.405 154.911 66.23 155.62 66.23C156.334 66.23 156.934 66.405 157.419 66.755C157.909 67.1003 158.278 67.574 158.525 68.176C158.777 68.778 158.903 69.457 158.903 70.213C158.903 70.969 158.777 71.648 158.525 72.25C158.273 72.852 157.902 73.3303 157.412 73.685C156.922 74.035 156.316 74.21 155.592 74.21ZM155.795 72.887C156.276 72.887 156.668 72.7727 156.971 72.544C157.275 72.3153 157.496 72.0003 157.636 71.599C157.776 71.1977 157.846 70.7357 157.846 70.213C157.846 69.6903 157.774 69.2283 157.629 68.827C157.489 68.4257 157.27 68.113 156.971 67.889C156.677 67.665 156.302 67.553 155.844 67.553C155.359 67.553 154.96 67.672 154.647 67.91C154.335 68.148 154.101 68.4677 153.947 68.869C153.798 69.2703 153.723 69.7183 153.723 70.213C153.723 70.7123 153.798 71.165 153.947 71.571C154.101 71.9723 154.33 72.292 154.633 72.53C154.941 72.768 155.329 72.887 155.795 72.887ZM157.678 77.36V71.879H157.846V66.44H159.148V77.36H157.678ZM163.956 74.203C163.433 74.203 162.995 74.119 162.64 73.951C162.285 73.783 161.996 73.5637 161.772 73.293C161.553 73.0177 161.385 72.719 161.268 72.397C161.151 72.075 161.072 71.76 161.03 71.452C160.988 71.144 160.967 70.8733 160.967 70.64V66.44H162.451V70.157C162.451 70.451 162.474 70.7543 162.521 71.067C162.572 71.375 162.666 71.662 162.801 71.928C162.941 72.194 163.135 72.4087 163.382 72.572C163.634 72.7353 163.961 72.817 164.362 72.817C164.623 72.817 164.871 72.775 165.104 72.691C165.337 72.6023 165.54 72.4623 165.713 72.271C165.89 72.0797 166.028 71.8277 166.126 71.515C166.229 71.2023 166.28 70.822 166.28 70.374L167.19 70.717C167.19 71.403 167.062 72.0097 166.805 72.537C166.548 73.0597 166.18 73.468 165.699 73.762C165.218 74.056 164.637 74.203 163.956 74.203ZM166.455 74V71.816H166.28V66.44H167.757V74H166.455ZM169.86 65.201V63.78H171.323V65.201H169.86ZM169.86 74V66.44H171.323V74H169.86ZM173.425 74V66.44H174.727V68.274L174.545 68.036C174.639 67.7933 174.76 67.5717 174.909 67.371C175.059 67.1657 175.231 66.9977 175.427 66.867C175.619 66.727 175.831 66.6197 176.064 66.545C176.302 66.4657 176.545 66.419 176.792 66.405C177.04 66.3863 177.278 66.398 177.506 66.44V67.812C177.259 67.7467 176.984 67.728 176.68 67.756C176.382 67.784 176.106 67.8797 175.854 68.043C175.616 68.197 175.427 68.3837 175.287 68.603C175.152 68.8223 175.054 69.0673 174.993 69.338C174.933 69.604 174.902 69.8863 174.902 70.185V74H173.425ZM182.056 74.21C181.304 74.21 180.644 74.0467 180.075 73.72C179.51 73.3887 179.069 72.929 178.752 72.341C178.439 71.7483 178.283 71.0623 178.283 70.283C178.283 69.457 178.437 68.7407 178.745 68.134C179.057 67.5273 179.491 67.0583 180.047 66.727C180.602 66.3957 181.248 66.23 181.986 66.23C182.756 66.23 183.411 66.4097 183.953 66.769C184.494 67.1237 184.898 67.63 185.164 68.288C185.434 68.946 185.542 69.7277 185.486 70.633H184.023V70.101C184.013 69.2237 183.845 68.575 183.519 68.155C183.197 67.735 182.704 67.525 182.042 67.525C181.309 67.525 180.758 67.756 180.39 68.218C180.021 68.68 179.837 69.3473 179.837 70.22C179.837 71.0507 180.021 71.6947 180.39 72.152C180.758 72.6047 181.29 72.831 181.986 72.831C182.443 72.831 182.837 72.7283 183.169 72.523C183.505 72.313 183.766 72.0143 183.953 71.627L185.388 72.082C185.094 72.7587 184.648 73.2837 184.051 73.657C183.453 74.0257 182.788 74.21 182.056 74.21ZM179.361 70.633V69.492H184.758V70.633H179.361ZM190.059 74.21C189.355 74.21 188.746 74.035 188.232 73.685C187.724 73.335 187.329 72.859 187.049 72.257C186.774 71.6503 186.636 70.969 186.636 70.213C186.636 69.4523 186.776 68.7733 187.056 68.176C187.336 67.574 187.733 67.1003 188.246 66.755C188.764 66.405 189.378 66.23 190.087 66.23C190.801 66.23 191.401 66.405 191.886 66.755C192.376 67.1003 192.745 67.574 192.992 68.176C193.244 68.778 193.37 69.457 193.37 70.213C193.37 70.969 193.244 71.648 192.992 72.25C192.74 72.852 192.369 73.3303 191.879 73.685C191.389 74.035 190.783 74.21 190.059 74.21ZM190.262 72.887C190.743 72.887 191.135 72.7727 191.438 72.544C191.742 72.3153 191.963 72.0003 192.103 71.599C192.243 71.1977 192.313 70.7357 192.313 70.213C192.313 69.6903 192.241 69.2283 192.096 68.827C191.956 68.4257 191.737 68.113 191.438 67.889C191.144 67.665 190.769 67.553 190.311 67.553C189.826 67.553 189.427 67.672 189.114 67.91C188.802 68.148 188.568 68.4677 188.414 68.869C188.265 69.2703 188.19 69.7183 188.19 70.213C188.19 70.7123 188.265 71.165 188.414 71.571C188.568 71.9723 188.797 72.292 189.1 72.53C189.408 72.768 189.796 72.887 190.262 72.887ZM192.313 74V68.561H192.145V63.92H193.615V74H192.313Z" fill="#242424"/>
<rect x="209.426" y="23.5" width="58" height="58" rx="29" fill="#314EE7"/>
<path d="M229.926 53.5702H243.161L240.012 56.6722L241.348 58L246.926 52.5057L241.348 47L240.012 48.3278L243.149 51.4069H229.926V53.5702Z" fill="white"/>
<rect x="7.40609" y="4.40609" width="289.188" height="96.1878" rx="7.71574" stroke="black" stroke-opacity="0.05" stroke-width="0.812183"/>
</g>
<defs>
<filter id="filter0_d_1041_555" x="0.502538" y="0.751269" width="302.995" height="109.995" filterUnits="userSpaceOnUse" color-interpolation-filters="sRGB">
<feFlood flood-opacity="0" result="BackgroundImageFix"/>
<feColorMatrix in="SourceAlpha" type="matrix" values="0 0 0 0 0 0 0 0 0 0 0 0 0 0 0 0 0 0 127 0" result="hardAlpha"/>
<feOffset dy="3.24873"/>
<feGaussianBlur stdDeviation="3.24873"/>
<feComposite in2="hardAlpha" operator="out"/>
<feColorMatrix type="matrix" values="0 0 0 0 0 0 0 0 0 0 0 0 0 0 0 0 0 0 0.07 0"/>
<feBlend mode="normal" in2="BackgroundImageFix" result="effect1_dropShadow_1041_555"/>
<feBlend mode="normal" in="SourceGraphic" in2="effect1_dropShadow_1041_555" result="shape"/>
</filter>
</defs>
</svg>
