<svg width="17" height="17" viewBox="0 0 17 17" fill="none" xmlns="http://www.w3.org/2000/svg">
<path fill-rule="evenodd" clip-rule="evenodd" d="M14.5403 16.5C15.6873 16.5 16.6172 15.6046 16.6172 14.5L16.617 8.49997C16.617 4.08152 12.8978 0.5 8.30939 0.499999C3.721 0.499999 0.00173105 4.08152 0.00173066 8.49996L0.00173014 14.5C0.00173004 15.6045 0.931618 16.5 2.07862 16.5L14.5403 16.5ZM13.2943 12.5001C13.2943 12.0582 12.9224 11.7 12.4635 11.7L4.15552 11.7C3.69668 11.7 3.32479 12.0582 3.32479 12.5001C3.32479 12.9419 3.69668 13.3 4.15552 13.3L12.4635 13.3C12.9224 13.3 13.2943 12.9419 13.2943 12.5001ZM11.7374 6.78785C12.1502 6.42093 12.1874 5.78886 11.8205 5.37608C11.4536 4.96329 10.8215 4.92611 10.4087 5.29303L8.30384 7.16402L6.19897 5.29303C5.78619 4.92611 5.15412 4.96329 4.7872 5.37608C4.42028 5.78886 4.45746 6.42093 4.87024 6.78785L7.63948 9.24939C8.01836 9.58618 8.58932 9.58618 8.9682 9.24939L11.7374 6.78785Z" fill="#0A071B"/>
</svg>
